<mxfile host="app.diagrams.net" modified="2024-06-22T09:48:01.249Z" agent="Mozilla/5.0 (Macintosh; Intel Mac OS X 10_15_7) AppleWebKit/537.36 (KHTML, like Gecko) Chrome/124.0.0.0 Safari/537.36" version="24.5.4" etag="7zjMqDNlmsQZj_2hBDPW" type="github">
  <diagram name="第 1 页" id="qoVOlZ0wx0WGFKkkT0KC">
    <mxGraphModel>
      <root>
        <mxCell id="0" />
        <mxCell id="1" parent="0" />
      </root>
    </mxGraphModel>
  </diagram>
</mxfile>
